<svg width="45" height="48" fill="none" xmlns="http://www.w3.org/2000/svg"><path d="M6 0l7.308 6.702h20.384V25.4L41 32.102V0H6z" fill="#AFB1B8"/><path d="M0 6.42v31.185h34V25.209L13.523 6.428 0 6.42zm27.523 26.623H5.38V12.07h1.565v19.553h20.578v1.42zM9.791 43.486l.818-1.684h.684L10.1 44.048v1.308h-.62v-1.308l-1.194-2.246h.686l.818 1.684zm3.51 1.043h-1.376l-.288.827h-.642l1.342-3.554h.555l1.345 3.554h-.645l-.29-.827zm-1.203-.498h1.03l-.515-1.475-.515 1.475zm3.638.366c0-.164.045-.315.134-.452.09-.138.266-.302.53-.49a2.268 2.268 0 01-.29-.445.877.877 0 01-.081-.354c0-.278.084-.498.254-.659.169-.163.397-.244.683-.244.26 0 .47.076.635.23.166.15.25.339.25.563a.785.785 0 01-.113.41 1.34 1.34 0 01-.369.372l-.242.175.687.811c.099-.195.148-.413.148-.652h.515c0 .438-.102.797-.307 1.077l.522.617h-.688l-.2-.236a1.47 1.47 0 01-.909.285c-.351 0-.633-.093-.844-.278a.932.932 0 01-.315-.73zm1.177.535c.2 0 .387-.067.561-.2l-.776-.916-.076.054c-.195.148-.293.317-.293.507 0 .165.053.298.159.4a.584.584 0 00.425.155zm-.328-2.29c0 .136.084.308.252.515l.27-.186.077-.06a.44.44 0 00.151-.345.311.311 0 00-.105-.237.37.37 0 00-.266-.1.348.348 0 00-.276.117.432.432 0 00-.103.296zm6.458 1.557c-.036.38-.176.676-.42.889-.244.212-.569.317-.974.317a1.4 1.4 0 01-.75-.2 1.333 1.333 0 01-.498-.574 2.064 2.064 0 01-.183-.861v-.333c0-.335.06-.63.178-.886.12-.255.29-.452.51-.59.224-.139.48-.208.772-.208.392 0 .708.106.947.32.24.213.379.514.418.903h-.615c-.03-.255-.104-.44-.225-.552-.119-.114-.294-.17-.525-.17-.268 0-.475.098-.62.295-.143.195-.216.482-.22.862v.315c0 .384.069.677.206.879.138.201.34.302.605.302.242 0 .425-.054.547-.163.122-.11.2-.29.232-.545h.615zm3.391-.527c0 .348-.06.654-.18.918-.121.262-.294.464-.518.605-.223.14-.48.21-.772.21-.288 0-.545-.07-.771-.21a1.406 1.406 0 01-.523-.603 2.124 2.124 0 01-.185-.9v-.2c0-.347.06-.653.183-.919.124-.265.297-.468.52-.608.225-.141.482-.212.771-.212.29 0 .547.07.77.21.224.138.398.338.52.6.122.26.184.564.185.911v.198zm-.618-.186c0-.394-.075-.695-.224-.905a.728.728 0 00-.633-.315.73.73 0 00-.627.315c-.15.208-.226.503-.23.886v.205c0 .39.076.692.228.906.153.213.364.32.634.32.274 0 .484-.105.63-.313.148-.208.222-.513.222-.913v-.186z" fill="#AFB1B8"/></svg>